HIERARCHY
ROOT Hips
{
	OFFSET 0.000000 83.214638 0.000000
	CHANNELS 6 Xposition Yposition Zposition Xrotation Yrotation Zrotation
	JOINT Pelvis
	{
		OFFSET 0.000000 0.000000 0.000000
		CHANNELS 3 Xrotation Yrotation Zrotation
		JOINT LeftUpLeg
		{
			OFFSET 8.479700 -4.795502 -0.379100
			CHANNELS 3 Xrotation Yrotation Zrotation
			JOINT LeftLeg
			{
				OFFSET 0.024144 -32.555107 0.112900
				CHANNELS 3 Xrotation Yrotation Zrotation
				JOINT LeftFoot
				{
					OFFSET -0.024144 -32.638630 -3.012600
					CHANNELS 3 Xrotation Yrotation Zrotation
					JOINT LeftToeBase
					{
						OFFSET 0.970200 -13.225400 11.864200
						CHANNELS 3 Xrotation Yrotation Zrotation
						End Site
						{
							OFFSET 0.000000 12.319262 0.000000
						}
					}
					JOINT LFootTongue
					{
						OFFSET 1.142400 -1.059800 6.665200
						CHANNELS 3 Xrotation Yrotation Zrotation
						End Site
						{
							OFFSET 0.000000 12.319262 0.000000
						}
					}
				}
				JOINT LeftPantLeg
				{
					OFFSET 0.918482 -16.533964 -2.284700
					CHANNELS 3 Xrotation Yrotation Zrotation
					End Site
					{
						OFFSET 0.350399 24.744368 0.000000
					}
				}
			}
		}
		JOINT RightUpLeg
		{
			OFFSET -8.479700 -4.795502 -0.379100
			CHANNELS 3 Xrotation Yrotation Zrotation
			JOINT RightLeg
			{
				OFFSET -0.023144 -32.555092 0.112900
				CHANNELS 3 Xrotation Yrotation Zrotation
				JOINT RightFoot
				{
					OFFSET 0.023144 -32.638641 -3.012700
					CHANNELS 3 Xrotation Yrotation Zrotation
					JOINT RightToeBase
					{
						OFFSET -0.970200 -13.225400 11.864200
						CHANNELS 3 Xrotation Yrotation Zrotation
						End Site
						{
							OFFSET 0.000000 12.319244 0.000000
						}
					}
					JOINT RFootTongue
					{
						OFFSET -1.142200 -1.059800 6.665200
						CHANNELS 3 Xrotation Yrotation Zrotation
						End Site
						{
							OFFSET 0.000000 12.319243 0.000000
						}
					}
				}
				JOINT RightPantLeg
				{
					OFFSET -0.919482 -16.533978 -2.284800
					CHANNELS 3 Xrotation Yrotation Zrotation
					End Site
					{
						OFFSET -0.350400 24.744419 0.000000
					}
				}
			}
		}
	}
	JOINT Spine
	{
		OFFSET 0.000000 7.722000 1.166200
		CHANNELS 3 Xrotation Yrotation Zrotation
		JOINT Spine1
		{
			OFFSET 0.000000 12.024101 0.248800
			CHANNELS 3 Xrotation Yrotation Zrotation
			JOINT Spine2
			{
				OFFSET 0.000000 11.502998 -0.491200
				CHANNELS 3 Xrotation Yrotation Zrotation
				JOINT Neck
				{
					OFFSET 0.000000 18.430702 -3.123100
					CHANNELS 3 Xrotation Yrotation Zrotation
					JOINT Head
					{
						OFFSET 0.000000 9.051102 1.034000
						CHANNELS 3 Xrotation Yrotation Zrotation
						JOINT HairB
						{
							OFFSET 0.208400 24.786102 24.822300
							CHANNELS 3 Xrotation Yrotation Zrotation
							End Site
							{
								OFFSET 0.000000 32.263779 0.000000
							}
						}
						JOINT HairA
						{
							OFFSET -7.081100 24.428299 23.196600
							CHANNELS 3 Xrotation Yrotation Zrotation
							End Site
							{
								OFFSET 0.000000 32.263779 0.000000
							}
						}
						JOINT Hat
						{
							OFFSET 16.728800 15.048294 -15.439601
							CHANNELS 3 Xrotation Yrotation Zrotation
							End Site
							{
								OFFSET 0.000000 32.263779 0.000000
							}
						}
					}
				}
				JOINT LeftShoulder
				{
					OFFSET 6.197800 13.665199 -4.064700
					CHANNELS 3 Xrotation Yrotation Zrotation
					JOINT LeftArm
					{
						OFFSET 7.778100 -0.187103 -1.709300
						CHANNELS 3 Xrotation Yrotation Zrotation
						JOINT LeftForeArm
						{
							OFFSET 22.049376 0.000000 0.000000
							CHANNELS 3 Xrotation Yrotation Zrotation
							JOINT LeftHand
							{
								OFFSET 23.009392 0.000000 0.000000
								CHANNELS 3 Xrotation Yrotation Zrotation
								JOINT LeftHandThumb1
								{
									OFFSET 3.507191 -2.063065 3.133727
									CHANNELS 3 Xrotation Yrotation Zrotation
									JOINT LeftHandThumb2
									{
										OFFSET 3.101337 -1.790558 1.790558
										CHANNELS 3 Xrotation Yrotation Zrotation
										JOINT LeftHandThumb3
										{
											OFFSET 3.058640 -1.765907 1.765906
											CHANNELS 3 Xrotation Yrotation Zrotation
											End Site
											{
												OFFSET -0.415260 3.926476 -0.049563
											}
										}
									}
								}
								JOINT LeftHandIndex1
								{
									OFFSET 11.334419 -0.901459 3.706815
									CHANNELS 3 Xrotation Yrotation Zrotation
									JOINT LeftHandIndex2
									{
										OFFSET 3.283112 0.000000 0.000000
										CHANNELS 3 Xrotation Yrotation Zrotation
										JOINT LeftHandIndex3
										{
											OFFSET 3.323853 0.000000 0.000000
											CHANNELS 3 Xrotation Yrotation Zrotation
											End Site
											{
												OFFSET -1.135597 3.097809 0.402452
											}
										}
									}
								}
								JOINT LeftHandMiddle1
								{
									OFFSET 11.335861 0.000000 0.000000
									CHANNELS 3 Xrotation Yrotation Zrotation
									JOINT LeftHandMiddle2
									{
										OFFSET 3.410492 0.000000 0.000000
										CHANNELS 3 Xrotation Yrotation Zrotation
										JOINT LeftHandMiddle3
										{
											OFFSET 3.312172 0.000000 0.000000
											CHANNELS 3 Xrotation Yrotation Zrotation
											End Site
											{
												OFFSET -1.150200 3.080154 0.400270
											}
										}
									}
								}
								JOINT LeftHandRing1
								{
									OFFSET 11.514786 -0.013176 -3.003090
									CHANNELS 3 Xrotation Yrotation Zrotation
									JOINT LeftHandRing2
									{
										OFFSET 3.053307 0.000000 0.000000
										CHANNELS 3 Xrotation Yrotation Zrotation
										JOINT LeftHandRing3
										{
											OFFSET 3.295807 0.000000 0.000000
											CHANNELS 3 Xrotation Yrotation Zrotation
											End Site
											{
												OFFSET -1.281006 3.013344 0.375733
											}
										}
									}
								}
								JOINT LeftHandPinky1
								{
									OFFSET 10.518692 -0.960396 -5.730441
									CHANNELS 3 Xrotation Yrotation Zrotation
									JOINT LeftHandPinky2
									{
										OFFSET 2.861649 0.000000 0.000000
										CHANNELS 3 Xrotation Yrotation Zrotation
										JOINT LeftHandPinky3
										{
											OFFSET 2.863380 0.000000 0.000000
											CHANNELS 3 Xrotation Yrotation Zrotation
											End Site
											{
												OFFSET -0.843597 2.711159 0.369971
											}
										}
									}
								}
							}
							JOINT LSleeve
							{
								OFFSET 6.676277 -0.344902 -1.011730
								CHANNELS 3 Xrotation Yrotation Zrotation
								End Site
								{
									OFFSET 0.000000 14.885353 0.000000
								}
							}
						}
					}
				}
				JOINT RightShoulder
				{
					OFFSET -6.197800 13.665199 -4.064700
					CHANNELS 3 Xrotation Yrotation Zrotation
					JOINT RightArm
					{
						OFFSET -7.778100 -0.187103 -1.709300
						CHANNELS 3 Xrotation Yrotation Zrotation
						JOINT RightForeArm
						{
							OFFSET -22.049376 0.000000 0.000000
							CHANNELS 3 Xrotation Yrotation Zrotation
							JOINT RightHand
							{
								OFFSET -23.009392 0.000000 0.000000
								CHANNELS 3 Xrotation Yrotation Zrotation
								JOINT RightHandThumb1
								{
									OFFSET -3.507191 -2.063065 3.133727
									CHANNELS 3 Xrotation Yrotation Zrotation
									JOINT RightHandThumb2
									{
										OFFSET -3.101337 -1.790558 1.790558
										CHANNELS 3 Xrotation Yrotation Zrotation
										JOINT RightHandThumb3
										{
											OFFSET -3.058640 -1.765907 1.765906
											CHANNELS 3 Xrotation Yrotation Zrotation
											End Site
											{
												OFFSET 0.415260 3.926476 -0.049563
											}
										}
									}
								}
								JOINT RightHandIndex1
								{
									OFFSET -11.334419 -0.901459 3.706815
									CHANNELS 3 Xrotation Yrotation Zrotation
									JOINT RightHandIndex2
									{
										OFFSET -3.283112 0.000000 0.000000
										CHANNELS 3 Xrotation Yrotation Zrotation
										JOINT RightHandIndex3
										{
											OFFSET -3.323853 0.000000 0.000000
											CHANNELS 3 Xrotation Yrotation Zrotation
											End Site
											{
												OFFSET 1.135597 3.097809 0.402452
											}
										}
									}
								}
								JOINT RightHandMiddle1
								{
									OFFSET -11.335861 0.000000 0.000000
									CHANNELS 3 Xrotation Yrotation Zrotation
									JOINT RightHandMiddle2
									{
										OFFSET -3.410492 0.000000 0.000000
										CHANNELS 3 Xrotation Yrotation Zrotation
										JOINT RightHandMiddle3
										{
											OFFSET -3.312172 0.000000 0.000000
											CHANNELS 3 Xrotation Yrotation Zrotation
											End Site
											{
												OFFSET 1.150200 3.080154 0.400270
											}
										}
									}
								}
								JOINT RightHandRing1
								{
									OFFSET -11.514786 -0.013176 -3.003090
									CHANNELS 3 Xrotation Yrotation Zrotation
									JOINT RightHandRing2
									{
										OFFSET -3.053307 0.000000 0.000000
										CHANNELS 3 Xrotation Yrotation Zrotation
										JOINT RightHandRing3
										{
											OFFSET -3.295807 0.000000 0.000000
											CHANNELS 3 Xrotation Yrotation Zrotation
											End Site
											{
												OFFSET 1.281006 3.013344 0.375733
											}
										}
									}
								}
								JOINT RightHandPinky1
								{
									OFFSET -10.518692 -0.960396 -5.730441
									CHANNELS 3 Xrotation Yrotation Zrotation
									JOINT RightHandPinky2
									{
										OFFSET -2.861649 0.000000 0.000000
										CHANNELS 3 Xrotation Yrotation Zrotation
										JOINT RightHandPinky3
										{
											OFFSET -2.863380 0.000000 0.000000
											CHANNELS 3 Xrotation Yrotation Zrotation
											End Site
											{
												OFFSET 0.843597 2.711159 0.369971
											}
										}
									}
								}
							}
							JOINT RSleeve
							{
								OFFSET -6.676277 -0.344902 -1.011730
								CHANNELS 3 Xrotation Yrotation Zrotation
								End Site
								{
									OFFSET 0.000000 14.885353 0.000000
								}
							}
						}
					}
				}
				JOINT Backpack
				{
					OFFSET 0.000000 -2.471497 36.677502
					CHANNELS 3 Xrotation Yrotation Zrotation
					End Site
					{
						OFFSET 0.000000 20.427315 0.000000
					}
				}
				JOINT Hood
				{
					OFFSET 0.000000 18.754097 -10.431000
					CHANNELS 3 Xrotation Yrotation Zrotation
					JOINT Hood1
					{
						OFFSET 0.000000 -5.011002 -7.685901
						CHANNELS 3 Xrotation Yrotation Zrotation
						End Site
						{
							OFFSET 0.000000 9.175140 0.000000
						}
					}
				}
				JOINT LHoodieString
				{
					OFFSET 5.250500 16.397697 3.089900
					CHANNELS 3 Xrotation Yrotation Zrotation
					JOINT LHoodieString1
					{
						OFFSET 0.257700 -6.364304 3.694600
						CHANNELS 3 Xrotation Yrotation Zrotation
						JOINT LHoodieString2
						{
							OFFSET 0.000000 -9.643799 2.679100
							CHANNELS 3 Xrotation Yrotation Zrotation
							End Site
							{
								OFFSET 0.000000 10.009018 0.000000
							}
						}
					}
				}
				JOINT RHoodieString
				{
					OFFSET -5.250500 16.397697 3.089900
					CHANNELS 3 Xrotation Yrotation Zrotation
					JOINT RHoodieString1
					{
						OFFSET -0.257700 -6.364304 3.694600
						CHANNELS 3 Xrotation Yrotation Zrotation
						JOINT RHoodieString2
						{
							OFFSET 0.000000 -9.643799 2.679100
							CHANNELS 3 Xrotation Yrotation Zrotation
							End Site
							{
								OFFSET 0.000000 10.009018 0.000000
							}
						}
					}
				}
			}
			JOINT LBackpack_Strap
			{
				OFFSET 15.223200 -7.719803 -6.610900
				CHANNELS 3 Xrotation Yrotation Zrotation
				End Site
				{
					OFFSET 0.000000 16.040596 0.000000
				}
			}
			JOINT RBackpack_Strap
			{
				OFFSET -15.223000 -7.719803 -6.610900
				CHANNELS 3 Xrotation Yrotation Zrotation
				End Site
				{
					OFFSET 0.000000 16.040596 0.000000
				}
			}
		}
	}
	JOINT BoyFacialAnim_Joint
	{
		OFFSET 1.000000 -82.208099 -1.550900
		CHANNELS 3 Xrotation Yrotation Zrotation
		End Site
		{
			OFFSET 0.000000 30.012791 0.000000
		}
	}
}
MOTION
Frames: 5
Frame Time: 0.033333
-136.003998 79.354568 0.137958 11.094067 -64.466747 8.341246 0.000000 0.000000 -0.000000 -35.259100 -4.141600 6.676254 64.400331 -5.809204 -0.055641 4.870576 -0.057741 -3.883411 -0.000002 0.000000 0.000000 -0.000002 0.000000 0.000000 -0.000001 -0.000001 0.000001 -23.251678 -8.364871 2.699622 32.609041 1.707382 0.295842 -13.912960 0.237862 -4.233089 0.000000 0.000002 0.000000 0.000000 0.000002 0.000000 -0.000000 0.000001 -0.000000 5.769406 6.651042 1.159498 4.182493 4.571375 0.110130 4.161462 4.591120 0.128978 4.545793 5.606648 1.846988 -5.164922 35.193462 -7.934817 -0.000001 0.000000 0.000000 -0.000001 0.000000 0.000000 -0.000001 0.000000 0.000000 0.911263 0.601286 -7.702197 -4.051643 -20.573211 -68.962692 -0.000012 -32.148423 -0.000004 8.321816 -18.282960 7.738041 34.633027 -11.155038 20.382278 10.096374 22.121379 -4.842045 0.000001 0.000000 -0.000000 -2.969048 -5.471669 -19.893612 0.727765 2.829839 -28.839241 0.000000 0.000001 -0.000003 -0.746410 3.056856 -35.126751 0.576276 2.535668 -25.603516 -0.000000 -0.000002 -0.000000 0.246923 4.332161 -31.992685 0.881332 3.092062 -31.811975 0.000001 -0.000001 0.000001 0.536003 4.750748 -28.582137 0.460943 2.279656 -22.858797 0.000001 0.000001 -0.000000 -0.000001 -0.000001 0.000002 -1.948447 6.180231 9.936065 2.512385 30.662679 56.102231 -0.000001 10.512020 -0.000011 5.220738 -5.348159 -19.407224 -0.184849 0.811009 0.379098 15.655629 -10.010897 -16.970464 -0.000002 0.000001 0.000002 -1.651717 0.247419 26.588204 0.103383 -0.976862 12.082033 -0.000001 0.000001 0.000000 0.259357 -3.956103 31.994474 0.244138 -1.489551 18.615032 0.000001 0.000001 0.000002 2.274149 -6.967898 34.302552 0.377174 -1.837717 23.195160 -0.000000 0.000000 0.000000 1.126483 -5.305273 36.590727 0.403462 -1.897856 24.001572 0.000000 -0.000000 0.000002 -0.000001 -0.000000 -0.000001 -0.000000 -0.000000 -0.000001 -0.000000 -0.000000 -0.000001 -0.000000 -0.000000 -0.000001 -0.000000 -0.000000 -0.000001 -0.000000 -0.000000 -0.000001 -0.000002 0.000000 0.000000 -0.000000 -0.000000 -0.000001 -0.000000 -0.000000 -0.000001 -0.000002 0.000000 0.000000 0.000000 -0.000000 -0.000001 0.000000 -0.000000 -0.000001 0.000000 0.000000 -0.000000 
-140.345657 80.248993 0.258265 11.588084 -65.809877 10.018539 0.000000 -0.000001 -0.000000 -37.377763 -1.369943 3.277434 55.348622 -3.363107 0.041895 0.686955 0.065234 -4.656102 -0.000000 0.000000 0.000001 -0.000000 0.000000 0.000001 -0.000000 -0.000001 0.000001 -16.834692 -7.723353 3.509888 27.086112 2.213613 0.319893 -14.734936 0.671797 -5.356942 -0.000000 -0.000000 0.000000 -0.000000 -0.000000 0.000000 -0.000000 0.000000 -0.000000 5.891837 7.402946 -0.302259 4.207035 4.750642 -0.407735 4.180451 4.776986 -0.387800 4.751500 5.600998 1.899792 -4.997779 35.156111 -7.368574 0.000000 -0.000001 -0.000000 0.000000 -0.000001 -0.000000 0.000000 -0.000001 -0.000000 1.287955 2.046102 -7.556871 -1.901024 -19.818062 -67.839618 0.000003 -29.221438 0.000019 5.898273 -13.966482 6.155455 34.633027 -11.155041 20.382282 10.317262 22.375514 -4.922718 0.000001 0.000002 0.000002 -2.909547 -5.343424 -19.893640 0.730507 2.834809 -28.894709 -0.000001 0.000004 -0.000001 -0.724620 3.070640 -34.949866 0.579112 2.541606 -25.668162 0.000001 0.000002 0.000002 0.244421 4.333142 -32.106397 0.880838 3.091232 -31.802546 0.000001 0.000001 -0.000002 0.557599 4.785878 -28.297475 0.460927 2.279630 -22.858495 0.000001 0.000000 -0.000002 -0.000001 0.000000 0.000000 -2.707381 6.648533 9.770598 0.059637 31.373135 55.948924 -0.000003 12.602158 0.000034 5.346749 -4.578921 -20.860123 -0.184849 0.811008 0.379094 14.555135 -10.338126 -17.751460 -0.000001 -0.000001 0.000000 -1.953985 1.211401 24.349870 0.102789 -0.974075 12.047042 -0.000001 0.000000 0.000002 -0.068665 -3.360491 30.624526 0.243101 -1.486472 18.575063 -0.000000 0.000001 -0.000000 2.118681 -6.841619 32.929179 0.379646 -1.843448 23.271920 0.000000 0.000000 0.000002 0.991111 -5.107804 35.939882 0.407284 -1.906409 24.116698 -0.000000 -0.000000 -0.000002 -0.000001 0.000000 -0.000000 0.000001 0.000001 0.000000 0.000001 0.000001 0.000000 0.000001 0.000001 0.000000 0.000001 0.000001 0.000000 0.000001 0.000001 -0.000000 -0.000000 -0.000001 -0.000000 0.000001 0.000001 0.000000 0.000001 0.000001 -0.000000 -0.000000 -0.000001 -0.000000 -0.000000 0.000001 -0.000000 -0.000000 0.000001 -0.000000 0.000000 -0.000001 -0.000000 
-140.345657 80.248993 0.258265 11.588084 -65.809877 10.018539 0.000000 -0.000001 -0.000000 -37.377763 -1.369943 3.277434 55.348622 -3.363107 0.041895 0.686955 0.065234 -4.656102 -0.000000 0.000000 0.000001 -0.000000 0.000000 0.000001 -0.000000 -0.000001 0.000001 -16.834692 -7.723353 3.509888 27.086112 2.213613 0.319893 -14.734936 0.671797 -5.356942 -0.000000 -0.000000 0.000000 -0.000000 -0.000000 0.000000 -0.000000 0.000000 -0.000000 5.891837 7.402946 -0.302259 4.207035 4.750642 -0.407735 4.180451 4.776986 -0.387800 4.751500 5.600998 1.899792 -4.997779 35.156111 -7.368574 0.000000 -0.000001 -0.000000 0.000000 -0.000001 -0.000000 0.000000 -0.000001 -0.000000 1.287955 2.046102 -7.556871 -1.901024 -19.818062 -67.839618 0.000003 -29.221438 0.000019 5.898273 -13.966482 6.155455 34.633027 -11.155041 20.382282 10.317262 22.375514 -4.922718 0.000001 0.000002 0.000002 -2.909547 -5.343424 -19.893640 0.730507 2.834809 -28.894709 -0.000001 0.000004 -0.000001 -0.724620 3.070640 -34.949866 0.579112 2.541606 -25.668162 0.000001 0.000002 0.000002 0.244421 4.333142 -32.106397 0.880838 3.091232 -31.802546 0.000001 0.000001 -0.000002 0.557599 4.785878 -28.297475 0.460927 2.279630 -22.858495 0.000001 0.000000 -0.000002 -0.000001 0.000000 0.000000 -2.707381 6.648533 9.770598 0.059637 31.373135 55.948924 -0.000003 12.602158 0.000034 5.346749 -4.578921 -20.860123 -0.184849 0.811008 0.379094 14.555135 -10.338126 -17.751460 -0.000001 -0.000001 0.000000 -1.953985 1.211401 24.349870 0.102789 -0.974075 12.047042 -0.000001 0.000000 0.000002 -0.068665 -3.360491 30.624526 0.243101 -1.486472 18.575063 -0.000000 0.000001 -0.000000 2.118681 -6.841619 32.929179 0.379646 -1.843448 23.271920 0.000000 0.000000 0.000002 0.991111 -5.107804 35.939882 0.407284 -1.906409 24.116698 -0.000000 -0.000000 -0.000002 -0.000001 0.000000 -0.000000 0.000001 0.000001 0.000000 0.000001 0.000001 0.000000 0.000001 0.000001 0.000000 0.000001 0.000001 0.000000 0.000001 0.000001 -0.000000 -0.000000 -0.000001 -0.000000 0.000001 0.000001 0.000000 0.000001 0.000001 -0.000000 -0.000000 -0.000001 -0.000000 -0.000000 0.000001 -0.000000 -0.000000 0.000001 -0.000000 0.000000 -0.000001 -0.000000 
-140.345657 80.248993 0.258265 11.588084 -65.809877 10.018539 0.000000 -0.000001 -0.000000 -37.377763 -1.369943 3.277434 55.348622 -3.363107 0.041895 0.686955 0.065234 -4.656102 -0.000000 0.000000 0.000001 -0.000000 0.000000 0.000001 -0.000000 -0.000001 0.000001 -16.834692 -7.723353 3.509888 27.086112 2.213613 0.319893 -14.734936 0.671797 -5.356942 -0.000000 -0.000000 0.000000 -0.000000 -0.000000 0.000000 -0.000000 0.000000 -0.000000 5.891837 7.402946 -0.302259 4.207035 4.750642 -0.407735 4.180451 4.776986 -0.387800 4.751500 5.600998 1.899792 -4.997779 35.156111 -7.368574 0.000000 -0.000001 -0.000000 0.000000 -0.000001 -0.000000 0.000000 -0.000001 -0.000000 1.287955 2.046102 -7.556871 -1.901024 -19.818062 -67.839618 0.000003 -29.221438 0.000019 5.898273 -13.966482 6.155455 34.633027 -11.155041 20.382282 10.317262 22.375514 -4.922718 0.000001 0.000002 0.000002 -2.909547 -5.343424 -19.893640 0.730507 2.834809 -28.894709 -0.000001 0.000004 -0.000001 -0.724620 3.070640 -34.949866 0.579112 2.541606 -25.668162 0.000001 0.000002 0.000002 0.244421 4.333142 -32.106397 0.880838 3.091232 -31.802546 0.000001 0.000001 -0.000002 0.557599 4.785878 -28.297475 0.460927 2.279630 -22.858495 0.000001 0.000000 -0.000002 -0.000001 0.000000 0.000000 -2.707381 6.648533 9.770598 0.059637 31.373135 55.948924 -0.000003 12.602158 0.000034 5.346749 -4.578921 -20.860123 -0.184849 0.811008 0.379094 14.555135 -10.338126 -17.751460 -0.000001 -0.000001 0.000000 -1.953985 1.211401 24.349870 0.102789 -0.974075 12.047042 -0.000001 0.000000 0.000002 -0.068665 -3.360491 30.624526 0.243101 -1.486472 18.575063 -0.000000 0.000001 -0.000000 2.118681 -6.841619 32.929179 0.379646 -1.843448 23.271920 0.000000 0.000000 0.000002 0.991111 -5.107804 35.939882 0.407284 -1.906409 24.116698 -0.000000 -0.000000 -0.000002 -0.000001 0.000000 -0.000000 0.000001 0.000001 0.000000 0.000001 0.000001 0.000000 0.000001 0.000001 0.000000 0.000001 0.000001 0.000000 0.000001 0.000001 -0.000000 -0.000000 -0.000001 -0.000000 0.000001 0.000001 0.000000 0.000001 0.000001 -0.000000 -0.000000 -0.000001 -0.000000 -0.000000 0.000001 -0.000000 -0.000000 0.000001 -0.000000 0.000000 -0.000001 -0.000000 
-140.345657 80.248993 0.258265 11.588084 -65.809877 10.018539 0.000000 -0.000001 -0.000000 -37.377763 -1.369943 3.277434 55.348622 -3.363107 0.041895 0.686955 0.065234 -4.656102 -0.000000 0.000000 0.000001 -0.000000 0.000000 0.000001 -0.000000 -0.000001 0.000001 -16.834692 -7.723353 3.509888 27.086112 2.213613 0.319893 -14.734936 0.671797 -5.356942 -0.000000 -0.000000 0.000000 -0.000000 -0.000000 0.000000 -0.000000 0.000000 -0.000000 5.891837 7.402946 -0.302259 4.207035 4.750642 -0.407735 4.180451 4.776986 -0.387800 4.751500 5.600998 1.899792 -4.997779 35.156111 -7.368574 0.000000 -0.000001 -0.000000 0.000000 -0.000001 -0.000000 0.000000 -0.000001 -0.000000 1.287955 2.046102 -7.556871 -1.901024 -19.818062 -67.839618 0.000003 -29.221438 0.000019 5.898273 -13.966482 6.155455 34.633027 -11.155041 20.382282 10.317262 22.375514 -4.922718 0.000001 0.000002 0.000002 -2.909547 -5.343424 -19.893640 0.730507 2.834809 -28.894709 -0.000001 0.000004 -0.000001 -0.724620 3.070640 -34.949866 0.579112 2.541606 -25.668162 0.000001 0.000002 0.000002 0.244421 4.333142 -32.106397 0.880838 3.091232 -31.802546 0.000001 0.000001 -0.000002 0.557599 4.785878 -28.297475 0.460927 2.279630 -22.858495 0.000001 0.000000 -0.000002 -0.000001 0.000000 0.000000 -2.707381 6.648533 9.770598 0.059637 31.373135 55.948924 -0.000003 12.602158 0.000034 5.346749 -4.578921 -20.860123 -0.184849 0.811008 0.379094 14.555135 -10.338126 -17.751460 -0.000001 -0.000001 0.000000 -1.953985 1.211401 24.349870 0.102789 -0.974075 12.047042 -0.000001 0.000000 0.000002 -0.068665 -3.360491 30.624526 0.243101 -1.486472 18.575063 -0.000000 0.000001 -0.000000 2.118681 -6.841619 32.929179 0.379646 -1.843448 23.271920 0.000000 0.000000 0.000002 0.991111 -5.107804 35.939882 0.407284 -1.906409 24.116698 -0.000000 -0.000000 -0.000002 -0.000001 0.000000 -0.000000 0.000001 0.000001 0.000000 0.000001 0.000001 0.000000 0.000001 0.000001 0.000000 0.000001 0.000001 0.000000 0.000001 0.000001 -0.000000 -0.000000 -0.000001 -0.000000 0.000001 0.000001 0.000000 0.000001 0.000001 -0.000000 -0.000000 -0.000001 -0.000000 -0.000000 0.000001 -0.000000 -0.000000 0.000001 -0.000000 0.000000 -0.000001 -0.000000 
